<svg width="247px" height="42px" viewBox="0 0 247 42" version="1.1" xmlns="http://www.w3.org/2000/svg" xmlns:xlink="http://www.w3.org/1999/xlink">
        <g id="Symbols" stroke="none" stroke-width="1" fill="none" fill-rule="evenodd">
            <g id="Footer/Desktop" transform="translate(-78.000000, -58.000000)" fill="#D1B46E">
                <g id="Group-5" transform="translate(78.000000, 58.000000)">
                    <path d="M236.8399,27.1649 C234.7439,30.5439 232.7689,29.7079 230.3049,29.7609 C224.2809,29.8789 224.0519,29.8469 224.0519,21.2599 L224.0519,18.3219 C224.0519,16.6399 224.4649,16.4109 228.9019,16.4109 L229.4199,16.4109 C231.4719,16.4109 231.5679,16.7359 231.7949,19.9109 C231.8469,20.2349 233.0089,19.9979 233.0089,19.8139 C233.0089,17.3839 233.2429,14.2609 233.5759,11.8339 C233.6169,11.6019 232.4479,11.4109 232.4109,11.6449 C231.7489,14.4469 231.5139,14.5399 229.3699,14.5399 L228.9019,14.5399 C224.4649,14.5399 224.0519,14.4469 224.0519,11.9739 L224.0519,9.0299 C224.0519,2.7759 224.0909,2.7759 229.7889,2.7759 C234.4579,2.7759 235.2469,3.0119 234.9249,6.6929 C234.8769,6.9809 236.0959,6.8849 236.1329,6.5989 C236.3739,4.4649 236.6109,2.8229 236.8809,1.5159 C237.0269,0.8589 236.7389,0.7269 236.0959,0.7269 C234.5059,0.7269 231.1969,1.0019 221.9959,1.0019 C220.1289,1.0019 216.7239,0.7269 215.7879,0.7269 C215.5519,0.7269 215.4679,1.8419 215.6939,1.8899 C219.8489,2.4539 219.9439,2.7759 219.9439,14.9109 L219.9439,17.8079 C219.9439,29.9419 219.8489,30.2719 215.6939,30.8399 C215.4679,30.8809 215.5519,31.9969 215.7879,31.9969 C216.7239,31.9969 220.1289,31.7199 221.9959,31.7199 C231.1969,31.7199 233.2289,31.8549 234.8179,31.8549 C235.4729,31.8549 235.8969,31.1969 236.2849,30.6809 C237.0889,29.5759 237.5559,28.8519 238.4219,27.8079 C238.6079,27.5809 237.0009,26.9109 236.8399,27.1649 L236.8399,27.1649 Z M229.7849,36.0419 L229.5809,36.3009 C229.5809,36.3009 227.4119,38.6469 224.2719,39.2839 C222.8689,39.5669 221.0759,39.1789 221.0759,39.1789 C216.3779,37.9099 210.9619,32.4199 203.0689,21.9149 L201.0549,19.2589 C200.3069,18.2789 200.9169,17.7629 201.8009,17.3029 C205.0289,15.5729 207.5919,12.0299 207.5919,8.4259 C207.5919,2.0339 202.4129,0.6359 196.9899,0.7219 C194.7519,0.7719 192.0389,1.0099 190.1839,1.0099 C188.3159,1.0099 184.9089,0.7219 183.9719,0.7219 C183.7389,0.7219 183.6449,1.8509 183.8829,1.8969 C188.0339,2.4539 188.1219,2.7779 188.1219,14.9109 L188.1219,17.8099 C188.1219,29.9479 188.0339,30.2719 183.8829,30.8289 C183.6449,30.8809 183.7389,32.0049 183.9719,32.0049 C184.9089,32.0049 188.3159,31.7259 190.1839,31.7259 C192.0389,31.7259 195.4529,32.0049 196.3899,32.0049 C196.6289,32.0049 196.7129,30.8809 196.4779,30.8289 C192.3269,30.2719 192.2349,29.9479 192.2349,17.8099 L192.2349,8.2949 C192.2349,2.7369 192.6579,2.7369 195.8309,2.7369 C201.7529,2.7369 202.7359,5.9559 202.7359,9.1719 C202.7359,13.9449 201.0699,16.6809 196.5079,16.9619 C196.2529,16.9719 196.0209,17.0219 195.7409,17.0219 C195.4379,17.0219 194.6999,17.0079 194.3669,16.9849 L194.3609,18.3139 C194.9709,18.4699 195.3229,18.6619 195.7489,19.0089 C196.3899,19.5099 197.0069,20.3419 198.1679,21.8199 L199.6039,23.6919 C209.6469,36.6609 215.4769,41.7589 221.5909,41.7589 C224.1329,41.7589 227.4539,41.2529 229.9479,38.4029 L230.3649,37.9019 L231.2939,36.6769 C231.4379,36.4439 229.9309,35.7749 229.7849,36.0419 L229.7849,36.0419 Z M16.3189,14.6439 C19.8959,13.0709 22.1239,10.6109 22.1289,7.5949 C22.1329,2.8099 18.5569,0.8529 13.7289,0.8529 C10.4809,0.8469 8.3889,1.3049 6.6659,1.3049 C4.8139,1.3049 1.2009,1.0199 0.2649,1.0239 C0.0279,1.0199 -0.0631,2.1349 0.1719,2.1819 C4.3019,2.7399 4.3969,3.0639 4.3839,15.1439 L4.3789,18.0239 C4.3679,30.0929 4.2699,30.4189 0.1339,30.9669 C-0.0981,31.0199 -0.0041,32.1369 0.2289,32.1369 C1.1609,32.1319 4.8749,31.8629 6.7309,31.8629 C9.0959,31.8659 11.6979,32.0059 14.1109,32.0119 C20.3809,32.0149 24.4769,27.8459 24.4809,23.1999 C24.4829,19.3009 22.0739,15.5319 16.3189,14.6439 L16.3189,14.6439 Z M8.5239,6.0449 C8.5269,3.7659 9.1299,2.6559 11.5909,2.6599 C14.0509,2.6619 17.4439,3.2239 17.4349,8.7919 C17.4319,11.5809 15.1569,14.2239 11.7179,14.2239 C9.0679,14.2179 8.5159,14.2199 8.5179,10.6889 L8.5239,6.0449 Z M13.1389,30.2899 C10.9589,30.2919 8.4989,30.0989 8.4989,26.0169 L8.5059,19.8369 C8.5109,16.0739 9.0679,16.0269 11.9019,16.0349 C15.2919,16.0369 19.5629,18.0829 19.5599,23.5659 C19.5559,26.6319 18.3419,30.3009 13.1389,30.2899 L13.1389,30.2899 Z M37.4549,15.1789 C37.4709,3.1049 37.5569,2.7779 41.6959,2.2279 C41.9219,2.1839 41.8319,1.0669 41.6029,1.0669 C40.6729,1.0669 37.2879,1.3389 35.4249,1.3389 C33.5729,1.3389 30.1339,1.0549 29.1999,1.0509 C28.9689,1.0509 28.8799,2.1729 29.1089,2.2159 C33.2399,2.7779 33.3339,3.1029 33.3139,15.1699 L33.3139,18.0569 C33.2989,30.1269 33.2099,30.4509 29.0719,31.0039 C28.8399,31.0539 28.9369,32.1709 29.1689,32.1709 C30.0979,32.1669 33.5359,31.8969 35.3899,31.8969 C37.2509,31.8949 40.6419,32.1799 41.5689,32.1799 C41.8009,32.1799 41.8889,31.0679 41.6619,31.0229 C37.5319,30.4579 37.4349,30.1309 37.4489,18.0589 L37.4549,15.1789 Z M100.8219,1.2209 C99.4689,1.2169 96.1779,1.4969 87.0209,1.4839 C77.8799,1.4769 74.8169,1.1939 73.7519,1.1899 C73.0969,1.1939 72.7779,1.3249 72.8189,1.9809 C72.8679,3.2769 72.8639,4.9059 72.7229,7.0389 C72.7189,7.3199 73.9219,7.4149 73.9269,7.1349 C74.2079,3.4699 74.9079,3.3309 79.1769,3.3359 L80.6659,3.3359 C84.9419,3.3399 84.9339,3.8069 84.9229,13.3719 L84.9199,18.1119 C84.9089,30.1809 84.8129,30.5089 80.6749,31.0599 C80.4479,31.1109 80.5359,32.2229 80.7699,32.2229 C81.7019,32.2229 85.0919,31.9489 86.9529,31.9509 C88.8029,31.9509 92.1959,32.2309 93.1229,32.2329 C93.3599,32.2329 93.4489,31.1199 93.2219,31.0679 C89.0879,30.5089 88.9909,30.1849 89.0019,18.1139 L89.0089,13.3719 C89.0199,3.8589 89.0219,3.3469 93.1999,3.3509 L95.3369,3.3509 C99.6109,3.3589 99.9339,3.4959 100.1179,7.1659 C100.1129,7.4409 101.2769,7.3529 101.3299,7.0709 C101.3709,4.9359 101.5139,3.6819 101.6539,2.3819 C101.7489,1.7329 101.4689,1.2269 100.8219,1.2209 L100.8219,1.2209 Z M147.0919,31.6999 C142.6769,31.0419 142.5439,30.7629 141.3979,18.7329 L141.1179,15.8129 C140.7959,12.1869 140.5599,9.6349 140.5659,7.7739 C140.5739,3.5019 141.7799,3.2269 145.5399,2.9049 C145.7729,2.9049 145.6839,1.7439 145.4489,1.7419 C144.5239,1.7379 141.1379,2.0209 139.2759,2.0159 C138.8159,2.0119 137.1909,1.8739 136.6769,1.8729 C136.1629,1.8649 136.0239,2.5719 135.8359,3.0299 C134.2069,7.0239 132.2149,11.8019 130.1569,16.4929 L128.8509,19.4629 C127.2769,23.0869 126.1559,25.3099 125.0839,27.3569 C124.9889,27.5399 124.8479,27.5879 124.7119,27.2639 C123.5059,24.7009 122.5319,22.1959 120.8679,18.0179 L119.7089,15.1309 C118.2269,11.4639 116.5139,6.8619 115.1239,2.6809 C115.0339,2.3549 114.7549,1.8029 114.3809,1.8029 C113.7369,1.8029 112.2029,1.9849 111.5909,1.9809 C109.7409,1.9809 106.6269,1.6989 105.7069,1.6989 C105.4669,1.6929 105.3759,2.8619 105.6049,2.8639 C109.1359,3.1869 110.4349,3.4699 110.4279,7.5559 C110.4279,9.4149 110.1449,12.0599 109.7209,15.8239 L109.3949,18.6959 C108.0349,30.7729 107.8489,31.0989 102.6469,31.6479 C102.4159,31.6939 102.5059,32.8109 102.7379,32.8059 C103.6689,32.8059 106.7759,32.5299 108.6379,32.5319 C110.4999,32.5389 113.3289,32.8269 114.2539,32.8239 C114.4879,32.8219 114.5849,31.7069 114.3559,31.6609 C111.9779,31.2849 111.0519,31.0539 111.0599,27.8029 C111.0599,25.9469 111.3389,23.1139 111.8559,18.7029 L112.1369,16.2439 C112.3749,14.2439 112.7449,11.9729 113.0279,10.3009 C113.1729,9.4619 113.3049,10.2969 113.5349,10.8569 L115.7129,16.2919 L116.8719,19.1249 C119.8339,26.3239 120.5309,27.9979 122.3359,32.9709 C122.5199,33.4329 122.8439,33.5309 123.1269,33.3429 C123.7739,32.8329 124.4239,32.5519 125.0279,32.1799 C125.2599,32.0399 125.6799,31.7689 125.7749,31.5839 C127.6379,27.1319 129.0759,24.3399 131.7339,18.4919 L133.2189,15.1969 C134.2029,13.0659 134.9939,11.2979 135.9739,9.1629 C136.1109,8.8839 136.2949,8.5129 136.3399,8.9749 C136.5249,11.0689 136.6619,12.9229 136.9359,15.8489 L137.2119,18.7329 C137.6269,23.0479 137.9019,25.8319 137.8959,27.6929 C137.8919,30.9909 137.0109,31.2699 134.5559,31.6839 C134.3149,31.7259 134.4049,32.8459 134.6459,32.8439 C135.5679,32.8459 138.4029,32.5659 140.2649,32.5729 C142.1199,32.5729 146.0689,32.8589 146.9949,32.8589 C147.2259,32.8589 147.3219,31.7429 147.0919,31.6999 L147.0919,31.6999 Z M164.7769,0.5249 C155.1249,0.5119 148.4719,7.2429 148.4549,16.5299 C148.4459,26.6529 154.2479,32.5559 164.7429,32.5729 C174.4029,32.5839 181.0479,25.8549 181.0639,16.5699 C181.0689,6.4449 175.2739,0.5429 164.7769,0.5249 L164.7769,0.5249 Z M164.7489,30.6189 C157.6859,30.6159 153.4189,24.8959 153.4339,16.5339 C153.4399,7.7599 156.3719,2.4739 164.7769,2.4819 C171.8349,2.4879 176.0569,8.1589 176.0439,16.5159 C176.0329,25.2899 173.1539,30.6259 164.7489,30.6189 L164.7489,30.6189 Z M74.0479,23.7579 C71.9589,29.4619 72.6869,30.0699 64.6909,30.0599 C58.5839,30.0509 58.2469,29.5159 58.2549,23.8749 L58.2609,14.7449 C58.2739,3.9929 58.4099,2.8579 64.3849,2.0589 C64.7229,1.9869 64.5929,1.0489 64.2549,1.0529 C62.9129,1.0489 58.9519,1.4499 56.2639,1.4429 C53.5779,1.4409 49.4799,1.0389 48.1399,1.0349 C47.8019,1.0329 47.6659,1.9669 48.0009,2.0369 C53.9789,2.8479 54.1099,3.9909 54.0989,14.7339 L54.0899,18.9009 C54.0829,29.6409 53.9499,30.7839 47.9659,31.5799 C47.6319,31.6549 47.7659,32.5899 48.1009,32.5899 C49.4429,32.5929 53.5409,32.1969 56.2269,32.1969 C66.0999,32.2069 68.7999,32.4119 71.0819,32.4159 C72.0229,32.4199 73.5689,32.1509 73.7009,31.2119 C74.0469,28.5229 74.5189,26.5159 75.1279,24.2299 C75.2579,23.8319 74.1789,23.3529 74.0479,23.7579 L74.0479,23.7579 Z" id="Fill-1"></path>
                    <path d="M242.043,3.6952 L242.537,3.6952 C243.1,3.6952 243.575,3.4912 243.575,2.9632 C243.575,2.5882 243.303,2.2142 242.537,2.2142 C242.315,2.2142 242.161,2.2302 242.043,2.2472 L242.043,3.6952 Z M242.043,6.0632 L241.361,6.0632 L241.361,1.7872 C241.72,1.7372 242.06,1.6852 242.571,1.6852 C243.217,1.6852 243.644,1.8212 243.899,2.0092 C244.155,2.1952 244.291,2.4862 244.291,2.8952 C244.291,3.4572 243.917,3.7972 243.457,3.9332 L243.457,3.9672 C243.831,4.0352 244.087,4.3772 244.171,5.0072 C244.273,5.6712 244.375,5.9252 244.443,6.0632 L243.73,6.0632 C243.627,5.9252 243.525,5.5352 243.439,4.9732 C243.337,4.4272 243.065,4.2232 242.52,4.2232 L242.043,4.2232 L242.043,6.0632 Z M242.759,0.5952 C241.071,0.5952 239.693,2.0432 239.693,3.8312 C239.693,5.6532 241.071,7.0832 242.775,7.0832 C244.479,7.1012 245.841,5.6532 245.841,3.8472 C245.841,2.0432 244.479,0.5952 242.775,0.5952 L242.759,0.5952 Z M242.775,0.0002 C244.869,0.0002 246.539,1.7012 246.539,3.8312 C246.539,5.9952 244.869,7.6802 242.759,7.6802 C240.664,7.6802 238.96,5.9952 238.96,3.8312 C238.96,1.7012 240.664,0.0002 242.759,0.0002 L242.775,0.0002 Z" id="Fill-3"></path>
                </g>
            </g>
        </g>
    </svg>