<svg id="ItineraryIcon" width="37px" height="55px" viewBox="0 0 37 55" version="1.1" xmlns="http://www.w3.org/2000/svg" xmlns:xlink="http://www.w3.org/1999/xlink">
        <defs>
            <polygon id="path-1" points="0.3451 0.7393 8.66535931 0.7393 8.66535931 29 0.3451 29"></polygon>
            <polygon id="path-3" points="0 0.2205 4.3755 0.2205 4.3755 4.8215 0 4.8215"></polygon>
        </defs>
        <g id="Symbols" stroke="none" stroke-width="1" fill="none" fill-rule="evenodd">
            <g id="Itinerary" transform="translate(-696.000000, -12.000000)">
                <g id="Group-9" transform="translate(685.000000, 1.000000)">
                    <g id="Group-67" transform="translate(11.000000, 11.000000)">
                        <path d="M26.688,43.3069 C26.688,43.0809 26.723,42.8439 26.794,42.6009 C27.174,41.2869 28.211,40.8709 29.31,40.4299 C30.323,40.0229 31.475,39.5609 32.445,38.2869 C32.585,38.1029 32.851,38.0679 33.035,38.2079 C33.221,38.3479 33.257,38.6119 33.114,38.7989 C32.003,40.2549 30.683,40.7849 29.622,41.2109 C28.603,41.6199 27.869,41.9149 27.602,42.8349 C27.472,43.2769 27.521,43.6779 27.732,43.9109 C27.878,44.0679 28.047,44.1429 28.223,44.1259 C28.396,44.1129 28.554,44.0089 28.655,43.8479 C28.771,43.6619 28.759,43.4689 28.714,43.3579 C28.707,43.3349 28.672,43.2629 28.622,43.2489 C28.396,43.1919 28.262,42.9599 28.314,42.7399 C28.371,42.5139 28.599,42.3779 28.824,42.4329 C29.124,42.5069 29.368,42.7299 29.495,43.0419 C29.652,43.4339 29.605,43.9119 29.368,44.2939 C29.126,44.6809 28.736,44.9249 28.298,44.9639 C27.857,45.0039 27.436,44.8309 27.113,44.4769 C26.833,44.1709 26.688,43.7639 26.688,43.3069" id="Fill-1" fill="#936E2A"></path>
                        <path d="M32.7803,38.3723 C32.7723,38.3723 32.7643,38.3723 32.7573,38.3733 C32.7113,38.3803 32.6713,38.4023 32.6433,38.4383 C31.6323,39.7663 30.4493,40.2413 29.4053,40.6613 C28.3163,41.0993 27.3803,41.4753 27.0343,42.6703 C26.9703,42.8903 26.9383,43.1033 26.9383,43.3073 C26.9383,43.7053 27.0623,44.0523 27.2973,44.3083 C27.5663,44.6043 27.9183,44.7483 28.2753,44.7153 C28.6343,44.6833 28.9553,44.4813 29.1563,44.1613 C29.3503,43.8493 29.3913,43.4553 29.2633,43.1353 C29.1663,42.8973 28.9843,42.7293 28.7633,42.6763 C28.6733,42.6503 28.5793,42.7093 28.5573,42.8003 C28.5363,42.8883 28.5933,42.9833 28.6833,43.0073 C28.8663,43.0573 28.9383,43.2393 28.9503,43.2753 C29.0163,43.4373 29.0313,43.7173 28.8663,43.9803 C28.7213,44.2123 28.4943,44.3553 28.2423,44.3753 C27.9923,44.4043 27.7503,44.2973 27.5493,44.0803 C27.2773,43.7813 27.2073,43.2903 27.3623,42.7653 C27.6633,41.7263 28.4863,41.3963 29.5293,40.9783 C30.5653,40.5613 31.8483,40.0463 32.9153,38.6473 C32.9443,38.6093 32.9563,38.5633 32.9493,38.5183 C32.9443,38.4743 32.9213,38.4343 32.8843,38.4083 C32.8533,38.3843 32.8173,38.3723 32.7803,38.3723 M28.1713,45.2203 C27.7053,45.2203 27.2683,45.0183 26.9273,44.6443 C26.6073,44.2963 26.4383,43.8333 26.4383,43.3073 C26.4383,43.0563 26.4773,42.7953 26.5533,42.5303 C26.9673,41.1013 28.1093,40.6433 29.2133,40.1993 C30.2023,39.8023 31.3183,39.3533 32.2463,38.1363 C32.3543,37.9933 32.5123,37.9013 32.6903,37.8783 C32.8693,37.8563 33.0453,37.9003 33.1873,38.0103 C33.3283,38.1163 33.4213,38.2723 33.4453,38.4503 C33.4693,38.6283 33.4233,38.8073 33.3123,38.9503 C32.1623,40.4583 30.8083,41.0033 29.7213,41.4403 C28.7273,41.8393 28.0753,42.1003 27.8423,42.9043 C27.7383,43.2573 27.7673,43.5773 27.9173,43.7423 C28.0093,43.8413 28.1113,43.8903 28.1993,43.8773 C28.2963,43.8693 28.3833,43.8103 28.4433,43.7153 C28.5053,43.6163 28.5013,43.5193 28.4883,43.4693 C28.1773,43.3523 27.9913,43.0143 28.0713,42.6823 C28.1613,42.3213 28.5233,42.1043 28.8833,42.1893 C29.2613,42.2833 29.5693,42.5593 29.7263,42.9483 C29.9133,43.4133 29.8573,43.9793 29.5803,44.4263 C29.2953,44.8803 28.8363,45.1673 28.3203,45.2133 C28.2703,45.2183 28.2203,45.2203 28.1713,45.2203" id="Fill-3" fill="#936E2A"></path>
                        <path d="M3.0312,38.5432 C3.0312,38.4162 3.0872,38.2922 3.1962,38.2082 C3.3812,38.0672 3.6442,38.1032 3.7852,38.2872 C4.7562,39.5612 5.9072,40.0222 6.9222,40.4302 C8.0202,40.8712 9.0572,41.2872 9.4362,42.6022 C9.6532,43.3372 9.5362,44.0212 9.1192,44.4782 C8.7962,44.8312 8.3742,45.0042 7.9332,44.9642 C7.4962,44.9252 7.1062,44.6812 6.8632,44.2952 C6.6272,43.9152 6.5792,43.4382 6.7352,43.0442 C6.8622,42.7302 7.1072,42.5082 7.4062,42.4332 C7.6322,42.3782 7.8612,42.5142 7.9172,42.7392 C7.9692,42.9632 7.8362,43.1912 7.6112,43.2492 C7.5582,43.2632 7.5252,43.3372 7.5152,43.3582 C7.4702,43.4712 7.4592,43.6632 7.5762,43.8482 C7.6772,44.0092 7.8352,44.1122 8.0092,44.1262 C8.1842,44.1432 8.3552,44.0672 8.4982,43.9102 C8.7092,43.6782 8.7602,43.2762 8.6292,42.8382 C8.3632,41.9152 7.6272,41.6192 6.6092,41.2112 C5.5482,40.7842 4.2282,40.2552 3.1162,38.7992 C3.0592,38.7222 3.0312,38.6322 3.0312,38.5432" id="Fill-5" fill="#936E2A"></path>
                        <path d="M7.5073,42.6711 C7.4933,42.6711 7.4793,42.6721 7.4653,42.6761 C7.2463,42.7311 7.0633,42.9001 6.9673,43.1381 C6.8403,43.4571 6.8823,43.8511 7.0753,44.1631 C7.2763,44.4821 7.5973,44.6831 7.9563,44.7151 C8.3223,44.7481 8.6663,44.6041 8.9353,44.3091 C9.2923,43.9181 9.3873,43.3211 9.1963,42.6721 C8.8513,41.4751 7.9153,41.0981 6.8303,40.6621 C5.7833,40.2421 4.5983,39.7671 3.5873,38.4391 C3.5283,38.3631 3.4223,38.3501 3.3473,38.4071 C3.2903,38.4511 3.2813,38.5121 3.2813,38.5431 C3.2813,38.5691 3.2873,38.6091 3.3173,38.6501 C4.3833,40.0461 5.6663,40.5631 6.6973,40.9771 C7.7453,41.3971 8.5693,41.7271 8.8693,42.7691 C9.0243,43.2891 8.9543,43.7791 8.6833,44.0781 C8.4873,44.2931 8.2433,44.3951 7.9853,44.3751 C7.7373,44.3561 7.5093,44.2121 7.3643,43.9811 C7.1983,43.7181 7.2133,43.4391 7.2833,43.2651 C7.3493,43.1191 7.4373,43.0361 7.5483,43.0071 C7.6393,42.9831 7.6953,42.8901 7.6743,42.7971 C7.6553,42.7221 7.5843,42.6711 7.5073,42.6711 M8.0593,45.2201 C8.0103,45.2201 7.9613,45.2181 7.9113,45.2131 C7.3963,45.1671 6.9373,44.8811 6.6523,44.4291 C6.3753,43.9831 6.3183,43.4181 6.5033,42.9521 C6.6603,42.5631 6.9673,42.2851 7.3453,42.1911 C7.7013,42.0971 8.0703,42.3211 8.1593,42.6791 C8.2383,43.0141 8.0543,43.3521 7.7433,43.4691 C7.7273,43.5261 7.7273,43.6181 7.7873,43.7141 C7.8483,43.8111 7.9363,43.8691 8.0283,43.8771 C8.1283,43.8891 8.2233,43.8411 8.3133,43.7421 C8.4643,43.5761 8.4933,43.2571 8.3893,42.9091 C8.1563,42.1011 7.5033,41.8391 6.5163,41.4431 C5.4233,41.0041 4.0693,40.4591 2.9183,38.9501 C2.8283,38.8301 2.7813,38.6901 2.7813,38.5431 C2.7813,38.3331 2.8773,38.1391 3.0433,38.0101 C3.3403,37.7861 3.7593,37.8431 3.9843,38.1361 C4.9123,39.3541 6.0293,39.8021 7.0143,40.1971 C8.1213,40.6431 9.2643,41.1021 9.6763,42.5321 C9.9173,43.3521 9.7823,44.1221 9.3043,44.6471 C8.9623,45.0201 8.5253,45.2201 8.0593,45.2201" id="Fill-7" fill="#936E2A"></path>
                        <path d="M1.9409,35.0403 C1.9409,32.8963 2.9559,31.1053 4.7829,30.1193 C7.3199,28.7483 10.6059,29.3753 13.1539,31.7153 C16.6319,34.9073 17.8919,42.2883 16.6129,46.2723 C16.0439,48.0483 14.8839,49.1443 13.4309,49.2803 C12.1869,49.3983 10.9579,48.7533 10.3719,47.6743 C9.9059,46.8203 9.9059,45.8323 10.3729,45.0353 C10.8559,44.2153 11.4889,43.9153 11.9359,43.8063 C12.4779,43.6743 13.0579,43.7583 13.4879,44.0293 C14.2039,44.4803 14.3859,45.2803 14.2449,45.8753 C14.1159,46.4273 13.7269,46.8153 13.2509,46.8633 C13.0209,46.8873 12.8139,46.7193 12.7899,46.4883 C12.7669,46.2433 12.9349,46.0503 13.1659,46.0263 C13.2749,46.0153 13.3819,45.8743 13.4259,45.6853 C13.4919,45.4053 13.4309,44.9873 13.0389,44.7413 C12.8529,44.6233 12.5169,44.5293 12.1329,44.6233 C11.8449,44.6933 11.4319,44.8953 11.0979,45.4613 C10.7789,46.0093 10.7809,46.6693 11.1099,47.2723 C11.5379,48.0603 12.4389,48.5283 13.3529,48.4443 C14.4539,48.3403 15.3509,47.4553 15.8129,46.0153 C17.0099,42.2863 15.7539,35.2433 12.5839,32.3343 C10.3049,30.2413 7.3989,29.6623 5.1829,30.8593 C3.3579,31.8453 2.4879,33.7983 2.8699,36.0863 C3.2109,38.1723 4.9979,40.2303 7.2929,39.9163 C8.2139,39.7893 9.0529,39.2093 9.4829,38.4003 C9.8959,37.6303 9.8959,36.7413 9.4829,35.9003 C8.9289,34.9193 8.1749,34.7733 7.7769,34.7763 C7.2099,34.7813 6.6829,35.0793 6.4339,35.5353 C6.1259,36.1023 6.3399,36.7243 6.7109,37.0443 C6.8669,37.1803 7.2819,37.4543 7.7589,37.0953 C7.9449,36.9543 8.2079,36.9913 8.3479,37.1773 C8.4889,37.3623 8.4499,37.6283 8.2659,37.7663 C7.6139,38.2573 6.7879,38.2233 6.1609,37.6823 C5.5349,37.1403 5.1719,36.0923 5.6949,35.1333 C6.0879,34.4123 6.9029,33.9433 7.7709,33.9363 C8.7639,33.9293 9.6599,34.5023 10.2279,35.5093 C10.7719,36.6223 10.7669,37.7823 10.2249,38.7963 C9.6619,39.8543 8.6079,40.5853 7.4079,40.7493 C4.6099,41.1323 2.4429,38.6963 2.0399,36.2223 C1.9739,35.8183 1.9409,35.4243 1.9409,35.0403" id="Fill-9" fill="#936E2A"></path>
                        <path d="M12.4497,43.9944 C12.2987,43.9944 12.1447,44.0124 11.9947,44.0494 C11.5947,44.1464 11.0257,44.4194 10.5887,45.1624 C10.1667,45.8834 10.1677,46.7774 10.5917,47.5544 C11.1297,48.5474 12.2587,49.1424 13.4077,49.0314 C14.7567,48.9044 15.8377,47.8714 16.3747,46.1964 C17.6317,42.2834 16.3987,35.0334 12.9847,31.8994 C10.5157,29.6314 7.3437,29.0204 4.9017,30.3394 C3.1787,31.2694 2.1907,32.9824 2.1907,35.0404 C2.1907,35.4104 2.2227,35.7944 2.2857,36.1824 C2.6717,38.5424 4.7267,40.8654 7.3737,40.5014 C8.4957,40.3484 9.4787,39.6674 10.0047,38.6794 C10.5077,37.7364 10.5077,36.6504 10.0027,35.6184 C9.4917,34.7124 8.6827,34.1864 7.7907,34.1864 L7.7727,34.1864 C6.9937,34.1924 6.2637,34.6114 5.9137,35.2534 C5.4567,36.0934 5.7737,37.0154 6.3247,37.4934 C6.8587,37.9534 7.5627,37.9834 8.1157,37.5664 C8.1517,37.5394 8.1747,37.4994 8.1807,37.4544 C8.1877,37.4084 8.1757,37.3644 8.1487,37.3284 C8.1207,37.2914 8.0807,37.2674 8.0357,37.2614 C7.9917,37.2554 7.9457,37.2664 7.9087,37.2944 C7.2677,37.7804 6.7027,37.3694 6.5467,37.2324 C6.1007,36.8484 5.8427,36.0994 6.2147,35.4164 C6.5057,34.8814 7.1187,34.5324 7.7757,34.5264 C8.2167,34.5234 9.0817,34.6814 9.7007,35.7774 C10.1567,36.7064 10.1557,37.6754 9.7037,38.5184 C9.2377,39.3954 8.3267,40.0264 7.3267,40.1644 C4.8737,40.4864 2.9827,38.3284 2.6237,36.1264 C2.2227,33.7324 3.1357,31.6814 5.0647,30.6404 C7.3757,29.3904 10.3937,29.9834 12.7527,32.1494 C15.9867,35.1174 17.2687,42.2964 16.0507,46.0914 C15.5567,47.6314 14.5817,48.5794 13.3757,48.6934 C12.3667,48.7824 11.3647,48.2644 10.8897,47.3914 C10.5197,46.7124 10.5167,45.9624 10.8817,45.3354 C11.2607,44.6934 11.7397,44.4624 12.0747,44.3804 C12.6507,44.2394 13.0607,44.4594 13.1727,44.5304 C13.6757,44.8464 13.7547,45.3804 13.6697,45.7424 C13.5987,46.0424 13.4117,46.2514 13.1927,46.2754 C13.0897,46.2854 13.0297,46.3614 13.0387,46.4654 C13.0487,46.5564 13.1247,46.6304 13.2247,46.6144 C13.5927,46.5774 13.8977,46.2654 14.0017,45.8184 C14.1217,45.3114 13.9687,44.6284 13.3547,44.2414 C13.0977,44.0794 12.7787,43.9944 12.4497,43.9944 M13.1387,49.5444 C11.9077,49.5444 10.7357,48.8674 10.1527,47.7934 C9.6437,46.8614 9.6457,45.7824 10.1577,44.9094 C10.6827,44.0154 11.3827,43.6834 11.8767,43.5624 C12.4827,43.4184 13.1347,43.5114 13.6217,43.8174 C14.4437,44.3364 14.6497,45.2544 14.4887,45.9324 C14.3347,46.5904 13.8587,47.0544 13.2757,47.1124 C12.9027,47.1434 12.5797,46.8814 12.5417,46.5144 C12.5057,46.1394 12.7677,45.8164 13.1387,45.7774 C13.1377,45.7824 13.1587,45.7314 13.1827,45.6284 C13.2307,45.4264 13.1867,45.1294 12.9067,44.9534 C12.7677,44.8654 12.4997,44.7924 12.1927,44.8664 C11.9507,44.9254 11.6027,45.0984 11.3137,45.5884 C11.0387,46.0594 11.0447,46.6304 11.3297,47.1534 C11.7097,47.8514 12.5117,48.2734 13.3297,48.1954 C14.3257,48.1004 15.1447,47.2784 15.5747,45.9384 C16.7487,42.2804 15.5217,35.3694 12.4147,32.5184 C10.2147,30.4964 7.4217,29.9334 5.3017,31.0794 C3.5707,32.0154 2.7537,33.8714 3.1167,36.0454 C3.4377,38.0164 5.1097,39.9734 7.2597,39.6684 C8.1017,39.5524 8.8697,39.0214 9.2627,38.2834 C9.6367,37.5844 9.6347,36.7774 9.2587,36.0114 C8.7767,35.1584 8.1347,35.0264 7.7887,35.0264 L7.7797,35.0264 C7.3017,35.0304 6.8597,35.2774 6.6537,35.6544 C6.4077,36.1054 6.5787,36.5994 6.8747,36.8544 C7.0407,37.0014 7.3037,37.1264 7.6087,36.8954 C7.7507,36.7874 7.9277,36.7444 8.1057,36.7654 C8.2827,36.7914 8.4397,36.8834 8.5477,37.0264 C8.6557,37.1684 8.7007,37.3454 8.6767,37.5234 C8.6517,37.7014 8.5587,37.8584 8.4157,37.9664 C7.6677,38.5304 6.7187,38.4924 5.9977,37.8714 C5.2957,37.2634 4.8907,36.0864 5.4747,35.0144 C5.9107,34.2154 6.8107,33.6944 7.7687,33.6864 L7.7907,33.6864 C8.8687,33.6864 9.8357,34.3054 10.4457,35.3864 C11.0287,36.5794 11.0267,37.8274 10.4457,38.9144 C9.8457,40.0434 8.7217,40.8214 7.4417,40.9974 C4.5067,41.3974 2.2157,38.8534 1.7927,36.2624 C1.7247,35.8484 1.6907,35.4374 1.6907,35.0404 C1.6907,32.7934 2.7747,30.9194 4.6637,29.8994 C7.2957,28.4774 10.6947,29.1184 13.3227,31.5304 C16.8677,34.7844 18.1517,42.2984 16.8517,46.3484 C16.2497,48.2234 15.0127,49.3834 13.4547,49.5294 C13.3487,49.5394 13.2437,49.5444 13.1387,49.5444" id="Fill-11" fill="#936E2A"></path>
                        <path d="M19.1455,42.6731 C19.1455,38.7841 20.5055,34.0911 23.0955,31.7151 C25.6425,29.3761 28.9265,28.7501 31.4635,30.1181 C33.6185,31.2821 34.6455,33.5651 34.2075,36.2221 C33.8045,38.6971 31.6375,41.1321 28.8405,40.7491 C27.6385,40.5851 26.5845,39.8551 26.0215,38.7961 C25.4815,37.7811 25.4745,36.6221 26.0085,35.5301 C26.5875,34.5021 27.4825,33.9291 28.4755,33.9371 C29.3435,33.9431 30.1595,34.4121 30.5525,35.1331 C31.0745,36.0911 30.7125,37.1411 30.0865,37.6821 C29.4575,38.2241 28.6325,38.2571 27.9835,37.7661 C27.7985,37.6251 27.7595,37.3621 27.9015,37.1771 C28.0415,36.9911 28.3055,36.9541 28.4905,37.0951 C28.9645,37.4541 29.3795,37.1801 29.5375,37.0441 C29.9075,36.7241 30.1245,36.1031 29.8135,35.5351 C29.5655,35.0791 29.0375,34.7811 28.4695,34.7771 C28.0705,34.7741 27.3185,34.9191 26.7525,35.9221 C26.3525,36.7431 26.3515,37.6301 26.7635,38.4011 C27.1945,39.2091 28.0345,39.7891 28.9555,39.9161 C31.2505,40.2311 33.0385,38.1721 33.3785,36.0861 C33.7515,33.7961 32.8885,31.8441 31.0645,30.8601 C28.8485,29.6621 25.9445,30.2411 23.6635,32.3341 C20.4935,35.2431 19.2365,42.2881 20.4365,46.0151 C20.8975,47.4541 21.7935,48.3401 22.8955,48.4441 C23.8085,48.5291 24.7095,48.0601 25.1365,47.2731 C25.4655,46.6701 25.4705,46.0111 25.1465,45.4621 C24.8155,44.8961 24.4025,44.6941 24.1135,44.6231 C23.7305,44.5291 23.3955,44.6231 23.2085,44.7411 C22.8185,44.9871 22.7545,45.4021 22.8225,45.6851 C22.8675,45.8741 22.9735,46.0151 23.0835,46.0271 C23.3135,46.0501 23.4945,46.2431 23.4585,46.4881 C23.4355,46.7191 23.2285,46.8871 22.9965,46.8631 C22.5225,46.8161 22.1325,46.4281 22.0035,45.8771 C21.8635,45.2831 22.0435,44.4831 22.7595,44.0291 C23.1885,43.7581 23.7705,43.6741 24.3125,43.8071 C24.7585,43.9151 25.3905,44.2151 25.8715,45.0361 C26.3415,45.8311 26.3435,46.8181 25.8755,47.6761 C25.2895,48.7531 24.0595,49.3991 22.8155,49.2801 C21.3635,49.1441 20.2045,48.0481 19.6335,46.2731 C19.3075,45.2521 19.1465,44.0111 19.1455,42.6731" id="Fill-13" fill="#936E2A"></path>
                        <path d="M19.3955,42.6731 C19.3965,44.0061 19.5615,45.2251 19.8725,46.1961 C20.4095,47.8711 21.4915,48.9041 22.8395,49.0311 C23.9835,49.1421 25.1165,48.5471 25.6565,47.5571 C26.0815,46.7771 26.0815,45.8821 25.6565,45.1631 C25.2195,44.4181 24.6525,44.1471 24.2535,44.0501 C23.7745,43.9321 23.2675,44.0041 22.8935,44.2401 C22.2805,44.6291 22.1275,45.3141 22.2475,45.8191 C22.3515,46.2661 22.6555,46.5771 23.0215,46.6141 C23.1235,46.6341 23.2005,46.5561 23.2105,46.4631 C23.2175,46.4101 23.2085,46.3721 23.1845,46.3411 C23.1555,46.3051 23.1095,46.2801 23.0585,46.2761 C22.8345,46.2511 22.6515,46.0471 22.5795,45.7421 C22.4925,45.3821 22.5705,44.8481 23.0755,44.5291 C23.1875,44.4591 23.5985,44.2401 24.1735,44.3801 C24.5085,44.4621 24.9875,44.6941 25.3625,45.3361 C25.7305,45.9601 25.7285,46.7101 25.3555,47.3931 C24.8825,48.2651 23.8755,48.7811 22.8725,48.6941 C21.6665,48.5791 20.6915,47.6301 20.1975,46.0911 C18.9775,42.2981 20.2585,35.1201 23.4945,32.1501 C25.8545,29.9851 28.8735,29.3901 31.1835,30.6401 C33.1035,31.6761 34.0165,33.7281 33.6255,36.1261 C33.2665,38.3281 31.3645,40.4911 28.9215,40.1641 C27.9225,40.0271 27.0105,39.3961 26.5425,38.5191 C26.0935,37.6771 26.0875,36.7161 26.5275,35.8131 C27.1635,34.6851 27.9995,34.5461 28.4715,34.5271 C29.1285,34.5321 29.7425,34.8811 30.0335,35.4161 C30.4065,36.0981 30.1475,36.8471 29.7005,37.2341 C29.2775,37.5981 28.7695,37.6201 28.3395,37.2941 C28.3035,37.2671 28.2585,37.2541 28.2135,37.2611 C28.1685,37.2681 28.1285,37.2911 28.1015,37.3271 C28.0725,37.3641 28.0615,37.4071 28.0665,37.4511 C28.0735,37.4971 28.0975,37.5381 28.1345,37.5671 C28.6855,37.9841 29.3885,37.9531 29.9235,37.4921 C30.4745,37.0171 30.7915,36.0951 30.3325,35.2521 C29.9825,34.6101 29.2525,34.1921 28.4735,34.1871 L28.4555,34.1871 C27.5625,34.1871 26.7515,34.7201 26.2265,35.6531 C25.7365,36.6551 25.7395,37.7351 26.2425,38.6791 C26.7685,39.6671 27.7515,40.3481 28.8745,40.5011 C31.5225,40.8661 33.5765,38.5411 33.9605,36.1821 C34.3805,33.6351 33.4035,31.4501 31.3455,30.3381 C28.9025,29.0221 25.7305,29.6351 23.2645,31.9001 C20.5915,34.3511 19.3955,39.0771 19.3955,42.6731 M23.1085,49.5441 C23.0035,49.5441 22.8975,49.5391 22.7925,49.5291 C21.2355,49.3831 19.9985,48.2241 19.3955,46.3491 C19.0695,45.3281 18.8965,44.0571 18.8955,42.6731 C18.8955,38.9681 20.1415,34.0851 22.9265,31.5301 C25.5525,29.1211 28.9515,28.4791 31.5825,29.8991 C33.8375,31.1161 34.9105,33.4951 34.4545,36.2631 C34.0325,38.8531 31.7475,41.3941 28.8065,40.9971 C27.5255,40.8221 26.4025,40.0431 25.8005,38.9131 C25.2215,37.8231 25.2155,36.5831 25.7845,35.4201 C26.4065,34.3131 27.3765,33.6871 28.4555,33.6871 L28.4775,33.6871 C29.4355,33.6941 30.3355,34.2141 30.7715,35.0131 C31.3575,36.0881 30.9525,37.2641 30.2495,37.8711 C29.5285,38.4921 28.5795,38.5291 27.8325,37.9651 C27.6875,37.8561 27.5955,37.6961 27.5715,37.5191 C27.5475,37.3421 27.5945,37.1661 27.7035,37.0251 C27.8095,36.8831 27.9665,36.7901 28.1445,36.7661 C28.3205,36.7431 28.4985,36.7871 28.6415,36.8961 C28.9425,37.1231 29.2065,36.9991 29.3735,36.8551 C29.6695,36.5991 29.8405,36.1051 29.5945,35.6551 C29.3885,35.2771 28.9465,35.0301 28.4675,35.0271 L28.4575,35.0271 C28.1125,35.0271 27.4685,35.1611 26.9705,36.0451 C26.6095,36.7871 26.6115,37.5861 26.9835,38.2821 C27.3775,39.0221 28.1465,39.5521 28.9895,39.6681 C31.1355,39.9691 32.8105,38.0171 33.1325,36.0461 C33.4875,33.8661 32.6695,32.0101 30.9465,31.0791 C28.8245,29.9341 26.0335,30.4991 23.8325,32.5191 C20.7235,35.3711 19.4975,42.2821 20.6735,45.9391 C21.1035,47.2781 21.9215,48.1011 22.9185,48.1951 C23.7315,48.2711 24.5375,47.8531 24.9165,47.1531 C25.2035,46.6291 25.2075,46.0591 24.9315,45.5891 C24.6445,45.0981 24.2955,44.9251 24.0545,44.8661 C23.7495,44.7921 23.4795,44.8651 23.3425,44.9521 C23.0615,45.1301 23.0175,45.4261 23.0655,45.6261 C23.0905,45.7331 23.1335,45.7811 23.1435,45.7881 C23.2945,45.7971 23.4655,45.8901 23.5775,46.0331 C23.6865,46.1721 23.7315,46.3461 23.7065,46.5241 C23.6705,46.8811 23.3425,47.1451 22.9715,47.1121 C22.3895,47.0541 21.9145,46.5911 21.7605,45.9341 C21.5995,45.2561 21.8055,44.3381 22.6255,43.8191 C23.1125,43.5111 23.7645,43.4151 24.3725,43.5641 C24.8645,43.6841 25.5625,44.0151 26.0875,44.9101 C26.6025,45.7801 26.6055,46.8601 26.0955,47.7951 C25.5115,48.8681 24.3385,49.5441 23.1085,49.5441" id="Fill-15" fill="#936E2A"></path>
                        <path d="M15.5947,27.3704 C15.5947,27.1384 15.7837,26.9494 16.0157,26.9494 C16.2487,26.9494 16.4367,27.1384 16.4367,27.3704 C16.4367,33.0344 21.2217,38.1164 23.2797,40.0384 C23.3697,40.1224 23.4297,40.2424 23.4117,40.3654 C23.4067,40.4884 23.3477,40.6034 23.2497,40.6794 C21.7677,41.8264 14.5697,47.8764 18.4737,54.0644 C18.5987,54.2644 18.5397,54.5224 18.3427,54.6454 C18.1467,54.7684 17.8877,54.7104 17.7627,54.5164 C13.7487,48.1514 20.2017,42.0844 22.3537,40.3184 C20.0677,38.1084 15.5947,33.0544 15.5947,27.3704" id="Fill-17" fill="#936E2A"></path>
                        <g id="Group-21" transform="translate(15.000000, 25.960200)">
                            <mask id="mask-2" fill="white">
                                <use xlink:href="#path-1"></use>
                            </mask>
                            <g id="Clip-20"></g>
                            <path d="M1.0161,1.2393 C0.9211,1.2393 0.8451,1.3163 0.8451,1.4103 C0.8451,7.1023 5.5181,12.2363 7.5271,14.1783 L7.7291,14.3743 L7.5121,14.5523 C5.4581,16.2373 -0.9389,22.2183 2.9741,28.4223 C3.0241,28.5013 3.1301,28.5233 3.2101,28.4733 C3.2491,28.4493 3.2751,28.4123 3.2851,28.3683 C3.2951,28.3243 3.2871,28.2773 3.2621,28.2373 C-0.7609,21.8603 6.5831,15.6923 8.0971,14.5213 C8.1361,14.4913 8.1601,14.4443 8.1621,14.3953 C8.1691,14.3403 8.1461,14.2963 8.1091,14.2603 C6.0271,12.3163 1.1871,7.1723 1.1871,1.4103 C1.1871,1.3163 1.1101,1.2393 1.0161,1.2393 M3.1201,29.0003 C2.8981,29.0003 2.6811,28.8903 2.5531,28.6903 C-1.4499,22.3443 4.6531,16.3083 6.9801,14.3433 C4.4111,11.8143 0.3451,6.9373 0.3451,1.4103 C0.3451,1.0403 0.6461,0.7393 1.0161,0.7393 C1.3861,0.7393 1.6871,1.0403 1.6871,1.4103 C1.6871,6.9763 6.4161,11.9963 8.4501,13.8953 C8.6091,14.0433 8.6871,14.2473 8.6601,14.4403 C8.6541,14.6133 8.5591,14.7963 8.4021,14.9173 C6.9501,16.0423 -0.1079,21.9603 3.6851,27.9703 C3.7821,28.1253 3.8121,28.3043 3.7731,28.4783 C3.7331,28.6533 3.6271,28.8023 3.4751,28.8973 C3.3651,28.9673 3.2421,29.0003 3.1201,29.0003" id="Fill-19" fill="#936E2A" mask="url(#mask-2)"></path>
                        </g>
                        <path d="M12.8433,40.345 C12.8433,40.231 12.8913,40.117 12.9773,40.038 C14.9963,38.152 19.7053,33.159 19.8163,27.572 C19.8213,27.339 20.0133,27.154 20.2463,27.158 C20.4773,27.163 20.6213,27.377 20.6583,27.588 C20.5463,33.188 16.1483,38.147 13.9033,40.319 C16.0543,42.084 22.5063,48.154 18.4933,54.514 C18.3693,54.71 18.1103,54.769 17.9133,54.646 C17.7173,54.523 17.6573,54.262 17.7813,54.066 C21.6873,47.874 14.4883,41.827 13.0063,40.679 C12.9083,40.604 12.8493,40.489 12.8443,40.366 C12.8433,40.36 12.8433,40.353 12.8433,40.345" id="Fill-22" fill="#936E2A"></path>
                        <path d="M12.8433,40.345 L13.0933,40.349 C13.0963,40.405 13.1203,40.451 13.1583,40.481 C14.6723,41.654 22.0143,47.824 17.9933,54.199 C17.9683,54.238 17.9613,54.283 17.9713,54.327 C17.9813,54.372 18.0083,54.41 18.0463,54.434 C18.1253,54.483 18.2313,54.459 18.2813,54.381 C22.1953,48.178 15.7983,42.198 13.7443,40.512 L13.5273,40.334 L13.7293,40.139 C15.7003,38.233 20.2963,33.194 20.4083,27.583 C20.3973,27.546 20.3383,27.41 20.2403,27.408 L20.2373,27.408 C20.1443,27.408 20.0683,27.484 20.0663,27.576 C19.9533,33.259 15.1903,38.313 13.1483,40.221 C13.1133,40.253 13.0933,40.299 13.0933,40.345 L12.8433,40.345 Z M18.1363,54.96 C18.0143,54.96 17.8913,54.927 17.7813,54.858 C17.6293,54.763 17.5233,54.614 17.4843,54.439 C17.4443,54.264 17.4743,54.083 17.5703,53.932 C21.3613,47.923 14.3063,42.002 12.8533,40.876 C12.6973,40.756 12.6023,40.574 12.5943,40.375 L12.5933,40.345 C12.5933,40.158 12.6713,39.98 12.8073,39.855 C14.8023,37.991 19.4573,33.059 19.5663,27.567 C19.5743,27.2 19.8733,26.908 20.2373,26.908 L20.2513,26.908 C20.5723,26.915 20.8413,27.177 20.9043,27.545 C20.7993,33.033 16.7973,37.822 14.2763,40.304 C16.6033,42.269 22.7063,48.304 18.7043,54.648 C18.5773,54.849 18.3593,54.96 18.1363,54.96 L18.1363,54.96 Z" id="Fill-24" fill="#936E2A"></path>
                        <path d="M3.0464,16.4172 C3.0464,16.3282 3.0744,16.2382 3.1314,16.1612 C4.2434,14.7072 5.5634,14.1792 6.6234,13.7512 C7.6424,13.3422 8.3794,13.0462 8.6474,12.1242 C8.7724,11.6802 8.7254,11.2802 8.5154,11.0522 C8.3714,10.8932 8.2014,10.8172 8.0254,10.8342 C7.8514,10.8512 7.6944,10.9512 7.5934,11.1122 C7.4774,11.2992 7.4884,11.4922 7.5324,11.6032 C7.5444,11.6322 7.5754,11.6992 7.6274,11.7122 C7.8534,11.7672 7.9884,11.9982 7.9344,12.2212 C7.8784,12.4462 7.6504,12.5842 7.4254,12.5282 C7.1254,12.4532 6.8794,12.2302 6.7534,11.9182 C6.5924,11.5272 6.6444,11.0462 6.8794,10.6672 C7.1164,10.2862 7.5174,10.0362 7.9484,9.9962 C8.3854,9.9562 8.8184,10.1352 9.1364,10.4842 C9.5504,10.9382 9.6684,11.6182 9.4544,12.3572 C9.0724,13.6742 8.0354,14.0922 6.9364,14.5322 C5.9214,14.9392 4.7714,15.4022 3.8004,16.6732 C3.6604,16.8572 3.3964,16.8932 3.2104,16.7512 C3.1024,16.6682 3.0464,16.5442 3.0464,16.4172" id="Fill-26" fill="#936E2A"></path>
                        <path d="M8.0718,10.5823 C8.3008,10.5823 8.5228,10.6873 8.7008,10.8843 C8.9708,11.1783 9.0388,11.6553 8.8878,12.1923 C8.5858,13.2323 7.7608,13.5633 6.7168,13.9833 C5.6748,14.4033 4.3948,14.9203 3.3308,16.3123 C3.3088,16.3423 3.2968,16.3793 3.2968,16.4173 C3.2968,16.4483 3.3048,16.5093 3.3628,16.5533 C3.3988,16.5803 3.4438,16.5983 3.4898,16.5863 C3.5348,16.5803 3.5748,16.5583 3.6018,16.5213 C4.6148,15.1943 5.7988,14.7203 6.8428,14.3003 C7.9278,13.8653 8.8658,13.4903 9.2138,12.2883 C9.4028,11.6383 9.3068,11.0413 8.9518,10.6533 C8.6868,10.3613 8.3278,10.2143 7.9718,10.2453 C7.6158,10.2783 7.2878,10.4853 7.0928,10.7993 C6.8988,11.1103 6.8568,11.5123 6.9848,11.8233 C7.0808,12.0613 7.2638,12.2303 7.4858,12.2863 C7.5788,12.3063 7.6688,12.2523 7.6918,12.1603 C7.7028,12.1173 7.6958,12.0703 7.6708,12.0303 C7.6478,11.9923 7.6118,11.9653 7.5688,11.9553 C7.4508,11.9263 7.3558,11.8343 7.3008,11.6953 C7.2318,11.5213 7.2178,11.2433 7.3808,10.9803 C7.5238,10.7533 7.7498,10.6093 8.0008,10.5853 C8.0248,10.5833 8.0488,10.5823 8.0718,10.5823 M3.4658,17.0883 C3.3198,17.0883 3.1768,17.0403 3.0588,16.9503 C2.8918,16.8213 2.7968,16.6273 2.7968,16.4173 C2.7968,16.2713 2.8428,16.1313 2.9308,16.0133 C4.0808,14.5083 5.4308,13.9633 6.5148,13.5253 C7.5198,13.1223 8.1738,12.8593 8.4068,12.0553 C8.5068,11.7003 8.4778,11.3813 8.3318,11.2213 C8.2398,11.1203 8.1438,11.0703 8.0488,11.0833 C7.9528,11.0923 7.8638,11.1513 7.8048,11.2453 C7.7438,11.3433 7.7458,11.4393 7.7588,11.4913 C7.8988,11.5423 8.0178,11.6403 8.0978,11.7703 C8.1918,11.9243 8.2198,12.1053 8.1768,12.2803 C8.0878,12.6403 7.7248,12.8573 7.3648,12.7713 C6.9858,12.6763 6.6788,12.3993 6.5218,12.0123 C6.3318,11.5513 6.3878,10.9843 6.6678,10.5353 C6.9448,10.0893 7.4148,9.7953 7.9258,9.7473 C8.4378,9.7063 8.9498,9.9073 9.3218,10.3163 C9.7958,10.8363 9.9318,11.6053 9.6948,12.4273 C9.2788,13.8633 8.1348,14.3213 7.0288,14.7653 C6.0448,15.1593 4.9288,15.6073 3.9998,16.8243 C3.8908,16.9673 3.7338,17.0593 3.5548,17.0823 C3.5258,17.0863 3.4958,17.0883 3.4658,17.0883" id="Fill-28" fill="#936E2A"></path>
                        <path d="M26.7031,11.6545 C26.7031,11.1955 26.8481,10.7885 27.1261,10.4845 C27.4521,10.1285 27.8751,9.9555 28.3181,9.9965 C28.7531,10.0375 29.1411,10.2825 29.3821,10.6675 C29.6191,11.0445 29.6711,11.5245 29.5111,11.9165 C29.3871,12.2295 29.1411,12.4525 28.8411,12.5275 C28.6161,12.5845 28.3871,12.4465 28.3311,12.2205 C28.2731,12.0005 28.4111,11.7675 28.6371,11.7125 C28.6901,11.6975 28.7231,11.6255 28.7321,11.6015 C28.7771,11.4935 28.7861,11.2995 28.6691,11.1135 C28.5681,10.9515 28.4111,10.8505 28.2391,10.8345 C28.0631,10.8175 27.8921,10.8925 27.7461,11.0515 C27.5361,11.2825 27.4861,11.6835 27.6161,12.1255 C27.8831,13.0465 28.6201,13.3415 29.6411,13.7515 C30.7001,14.1785 32.0201,14.7075 33.1301,16.1615 C33.2711,16.3465 33.2361,16.6095 33.0511,16.7515 C32.8671,16.8925 32.6031,16.8575 32.4611,16.6735 C31.4921,15.4015 30.3421,14.9395 29.3261,14.5325 C28.2271,14.0925 27.1891,13.6745 26.8071,12.3585 C26.7371,12.1155 26.7031,11.8785 26.7031,11.6545" id="Fill-30" fill="#936E2A"></path>
                        <path d="M28.1914,10.2405 C27.8664,10.2405 27.5564,10.3855 27.3104,10.6535 C27.0764,10.9085 26.9534,11.2555 26.9534,11.6545 C26.9534,11.8585 26.9844,12.0715 27.0474,12.2895 C27.3954,13.4895 28.3334,13.8655 29.4194,14.3005 C30.4634,14.7195 31.6484,15.1935 32.6604,16.5215 C32.6884,16.5565 32.7284,16.5805 32.7734,16.5875 C32.8194,16.5915 32.8624,16.5815 32.8994,16.5525 C32.9754,16.4945 32.9884,16.3885 32.9304,16.3125 C31.8674,14.9205 30.5884,14.4035 29.5614,13.9885 C28.5024,13.5645 27.6764,13.2335 27.3764,12.1945 C27.2214,11.6725 27.2914,11.1805 27.5624,10.8845 C27.7594,10.6675 28.0064,10.5625 28.2624,10.5855 C28.5144,10.6095 28.7394,10.7545 28.8804,10.9815 C29.0484,11.2475 29.0344,11.5255 28.9634,11.6965 C28.9064,11.8335 28.8174,11.9225 28.7044,11.9535 C28.6524,11.9665 28.6154,11.9935 28.5914,12.0335 C28.5684,12.0725 28.5624,12.1165 28.5724,12.1575 C28.5844,12.2055 28.6124,12.2425 28.6514,12.2655 C28.6914,12.2905 28.7364,12.2945 28.7804,12.2855 C29.0034,12.2295 29.1844,12.0615 29.2784,11.8235 C29.4094,11.5055 29.3674,11.1135 29.1704,10.8005 C28.9704,10.4805 28.6514,10.2785 28.2944,10.2455 C28.2604,10.2425 28.2254,10.2405 28.1914,10.2405 M32.7964,17.0885 C32.7674,17.0885 32.7384,17.0865 32.7084,17.0825 C32.5304,17.0585 32.3724,16.9685 32.2634,16.8255 C31.3344,15.6055 30.2174,15.1595 29.2334,14.7645 C28.1274,14.3205 26.9834,13.8625 26.5674,12.4285 C26.4914,12.1655 26.4534,11.9055 26.4534,11.6545 C26.4534,11.1275 26.6224,10.6645 26.9414,10.3155 C27.3214,9.9015 27.8204,9.6965 28.3404,9.7475 C28.8554,9.7965 29.3114,10.0825 29.5944,10.5345 C29.8754,10.9815 29.9314,11.5475 29.7424,12.0115 C29.5894,12.3975 29.2824,12.6755 28.9014,12.7695 C28.7294,12.8125 28.5484,12.7875 28.3944,12.6945 C28.2404,12.6025 28.1314,12.4555 28.0884,12.2815 C28.0444,12.1115 28.0704,11.9315 28.1624,11.7775 C28.2414,11.6435 28.3614,11.5445 28.5044,11.4915 C28.5174,11.4395 28.5204,11.3455 28.4574,11.2475 C28.3974,11.1495 28.3114,11.0925 28.2154,11.0835 C28.1224,11.0725 28.0234,11.1205 27.9314,11.2205 C27.7814,11.3855 27.7524,11.7045 27.8564,12.0535 C28.0894,12.8605 28.7434,13.1225 29.7334,13.5185 C30.8324,13.9635 32.1824,14.5075 33.3284,16.0105 C33.5524,16.3035 33.4964,16.7245 33.2034,16.9495 C33.0854,17.0405 32.9434,17.0885 32.7964,17.0885" id="Fill-32" fill="#936E2A"></path>
                        <path d="M19.1455,12.2893 C19.1455,10.9513 19.3075,9.7093 19.6335,8.6893 C20.2045,6.9143 21.3645,5.8163 22.8165,5.6813 C24.0595,5.5633 25.2895,6.2073 25.8755,7.2833 C26.3505,8.1563 26.3475,9.1183 25.8715,9.9263 C25.3915,10.7453 24.7605,11.0463 24.3155,11.1553 C23.7715,11.2873 23.1915,11.2053 22.7605,10.9353 C22.0435,10.4823 21.8655,9.6813 22.0025,9.0873 C22.1315,8.5363 22.5215,8.1463 22.9965,8.0983 C23.2265,8.0743 23.4335,8.2413 23.4585,8.4723 C23.4895,8.7023 23.3155,8.9093 23.0835,8.9353 C22.9745,8.9463 22.8665,9.0883 22.8215,9.2783 C22.7555,9.5603 22.8165,9.9753 23.2085,10.2233 C23.3955,10.3393 23.7305,10.4323 24.1145,10.3383 C24.4025,10.2683 24.8155,10.0653 25.1465,9.5013 C25.4675,8.9523 25.4655,8.2913 25.1365,7.6853 C24.7095,6.9003 23.8085,6.4323 22.8955,6.5173 C21.7935,6.6213 20.8975,7.5063 20.4365,8.9463 C19.2365,12.6743 20.4925,19.7193 23.6635,22.6273 C25.9445,24.7203 28.8485,25.3003 31.0645,24.1023 C32.8885,23.1173 33.7515,21.1653 33.3785,18.8753 C33.0385,16.7883 31.2505,14.7293 28.9555,15.0443 C28.0345,15.1713 27.1945,15.7533 26.7635,16.5603 C26.3525,17.3323 26.3525,18.2203 26.7645,19.0613 C27.3165,20.0403 28.0705,20.1863 28.4695,20.1843 C29.0375,20.1793 29.5655,19.8813 29.8135,19.4253 C30.1245,18.8593 29.9075,18.2383 29.5375,17.9183 C29.3795,17.7833 28.9655,17.5093 28.4905,17.8673 C28.3055,18.0083 28.0415,17.9713 27.9015,17.7853 C27.7605,17.6013 27.7965,17.3373 27.9835,17.1963 C28.6315,16.7063 29.4575,16.7383 30.0865,17.2803 C30.7125,17.8213 31.0755,18.8693 30.5525,19.8273 C30.1595,20.5483 29.3435,21.0183 28.4755,21.0233 C27.4825,21.0313 26.5875,20.4583 26.0205,19.4543 C25.4745,18.3423 25.4795,17.1833 26.0215,16.1663 C26.5845,15.1073 27.6385,14.3773 28.8405,14.2113 C31.6375,13.8283 33.8045,16.2643 34.2075,18.7403 C34.6445,21.3973 33.6185,23.6783 31.4635,24.8423 C28.9265,26.2133 25.6425,25.5863 23.0955,23.2463 C20.5055,20.8703 19.1455,16.1773 19.1455,12.2893" id="Fill-34" fill="#936E2A"></path>
                        <path d="M23.1094,5.9172 C23.0204,5.9172 22.9304,5.9212 22.8404,5.9302 C21.4924,6.0562 20.4104,7.0892 19.8714,8.7662 C19.5604,9.7402 19.3954,10.9582 19.3954,12.2892 C19.3954,15.7692 20.6064,20.6232 23.2644,23.0622 C25.7324,25.3292 28.9034,25.9402 31.3454,24.6222 C33.4014,23.5112 34.3794,21.3272 33.9614,18.7812 C33.5764,16.4202 31.5294,14.0912 28.8744,14.4592 C27.7524,14.6132 26.7684,15.2962 26.2424,16.2832 C25.7384,17.2282 25.7394,18.3142 26.2454,19.3442 C26.7564,20.2492 27.5634,20.7732 28.4554,20.7732 L28.4734,20.7732 C29.2524,20.7692 29.9824,20.3502 30.3334,19.7072 C30.7924,18.8672 30.4744,17.9452 29.9224,17.4702 C29.3884,17.0092 28.6854,16.9782 28.1344,17.3962 C28.0974,17.4242 28.0734,17.4642 28.0674,17.5092 C28.0614,17.5542 28.0724,17.5982 28.1004,17.6342 C28.1284,17.6712 28.1684,17.6942 28.2134,17.7012 C28.2574,17.7052 28.3024,17.6942 28.3384,17.6682 C28.7684,17.3452 29.2784,17.3652 29.6994,17.7292 C30.1484,18.1162 30.4064,18.8642 30.0334,19.5452 C29.7424,20.0792 29.1294,20.4282 28.4714,20.4342 L28.4574,20.4342 C28.0004,20.4342 27.1584,20.2682 26.5464,19.1852 C26.0924,18.2562 26.0934,17.2872 26.5424,16.4432 C27.0114,15.5642 27.9234,14.9342 28.9214,14.7962 C31.3634,14.4732 33.2664,16.6322 33.6254,18.8352 C34.0164,21.2332 33.1034,23.2852 31.1834,24.3222 C28.8744,25.5692 25.8554,24.9772 23.4944,22.8122 C20.2584,19.8432 18.9774,12.6642 20.1984,8.8702 C20.6914,7.3312 21.6654,6.3822 22.8724,6.2682 C23.8814,6.1802 24.8824,6.6942 25.3564,7.5662 C25.7274,8.2492 25.7294,9.0002 25.3624,9.6272 C24.9854,10.2702 24.5074,10.5002 24.1734,10.5812 C23.5994,10.7212 23.1884,10.5052 23.0764,10.4352 C22.5734,10.1162 22.4934,9.5822 22.5784,9.2222 C22.6494,8.9202 22.8364,8.7102 23.0564,8.6862 C23.1044,8.6812 23.1494,8.6562 23.1784,8.6192 C23.1974,8.5952 23.2174,8.5562 23.2114,8.5042 C23.2004,8.4062 23.1264,8.3282 23.0224,8.3472 C22.6554,8.3842 22.3514,8.6972 22.2464,9.1442 C22.1284,9.6522 22.2834,10.3382 22.8944,10.7232 C23.2684,10.9592 23.7764,11.0282 24.2564,10.9122 C24.6544,10.8142 25.2214,10.5422 25.6554,9.8002 C26.0874,9.0682 26.0874,8.1952 25.6564,7.4022 C25.1594,6.4912 24.1594,5.9172 23.1094,5.9172 M28.5724,25.8102 C26.6454,25.8102 24.6244,24.9902 22.9264,23.4312 C20.1414,20.8762 18.8954,15.9942 18.8954,12.2892 C18.8954,10.9072 19.0684,9.6362 19.3954,8.6132 C19.9984,6.7362 21.2364,5.5772 22.7934,5.4322 C24.1314,5.3062 25.4624,6.0012 26.0954,7.1642 C26.6114,8.1142 26.6094,9.1682 26.0874,10.0532 C25.5644,10.9452 24.8674,11.2772 24.3754,11.3982 C23.7654,11.5462 23.1134,11.4512 22.6284,11.1462 C21.8084,10.6302 21.6014,9.7112 21.7594,9.0302 C21.9134,8.3722 22.3894,7.9092 22.9714,7.8492 C23.3314,7.8152 23.6664,8.0792 23.7074,8.4432 C23.7304,8.6142 23.6814,8.7872 23.5714,8.9282 C23.4604,9.0702 23.2924,9.1632 23.1114,9.1832 C23.1304,9.1882 23.0894,9.2302 23.0654,9.3352 C23.0484,9.4082 22.9814,9.7832 23.3424,10.0122 C23.4794,10.0962 23.7494,10.1722 24.0554,10.0952 C24.2964,10.0372 24.6434,9.8652 24.9304,9.3742 C25.2074,8.9022 25.2024,8.3302 24.9174,7.8052 C24.5374,7.1072 23.7364,6.6902 22.9184,6.7662 C21.9214,6.8602 21.1034,7.6832 20.6744,9.0222 C19.4974,12.6812 20.7234,19.5912 23.8324,22.4422 C26.0334,24.4632 28.8264,25.0282 30.9464,23.8832 C32.6704,22.9512 33.4874,21.0942 33.1324,18.9152 C32.8104,16.9432 31.1414,14.9902 28.9884,15.2922 C28.1474,15.4072 27.3794,15.9392 26.9844,16.6792 C26.6114,17.3772 26.6134,18.1852 26.9884,18.9522 C27.4744,19.8112 28.1214,19.9182 28.4674,19.9342 C28.9464,19.9302 29.3884,19.6832 29.5944,19.3052 C29.8404,18.8562 29.6694,18.3632 29.3734,18.1072 C29.1304,17.8972 28.8834,17.8832 28.6404,18.0662 C28.4994,18.1752 28.3264,18.2202 28.1444,18.1962 C27.9664,18.1722 27.8094,18.0792 27.7014,17.9362 C27.5934,17.7942 27.5474,17.6182 27.5714,17.4402 C27.5964,17.2632 27.6894,17.1052 27.8334,16.9972 C28.5784,16.4312 29.5264,16.4682 30.2494,17.0912 C30.9524,17.6982 31.3584,18.8742 30.7714,19.9472 C30.3364,20.7462 29.4354,21.2672 28.4764,21.2732 L28.4544,21.2732 C27.3784,21.2732 26.4124,20.6562 25.8024,19.5772 C25.2184,18.3872 25.2194,17.1382 25.8004,16.0492 C26.4014,14.9202 27.5254,14.1412 28.8064,13.9632 C31.7474,13.5632 34.0324,16.1072 34.4544,18.7002 C34.9084,21.4662 33.8354,23.8452 31.5824,25.0622 C30.6524,25.5642 29.6264,25.8102 28.5724,25.8102" id="Fill-36" fill="#936E2A"></path>
                        <path d="M1.9409,19.9211 C1.9409,19.5371 1.9739,19.1431 2.0399,18.7391 C2.4439,16.2651 4.6099,13.8281 7.4079,14.2111 C8.6079,14.3771 9.6619,15.1081 10.2269,16.1661 C10.7669,17.1811 10.7719,18.3421 10.2389,19.4321 C9.6599,20.4581 8.7639,21.0311 7.7709,21.0241 C6.9029,21.0171 6.0879,20.5481 5.6949,19.8271 C5.1709,18.8691 5.5349,17.8231 6.1609,17.2801 C6.7879,16.7381 7.6139,16.7061 8.2659,17.1961 C8.4499,17.3371 8.4889,17.5991 8.3479,17.7851 C8.2079,17.9711 7.9439,18.0081 7.7589,17.8671 C7.2809,17.5091 6.8669,17.7831 6.7099,17.9181 C6.3399,18.2381 6.1259,18.8581 6.4339,19.4251 C6.6829,19.8811 7.2099,20.1791 7.7769,20.1841 C8.1759,20.1871 8.9299,20.0401 9.4949,19.0401 C9.8949,18.2221 9.8959,17.3321 9.4829,16.5611 C9.0529,15.7531 8.2139,15.1711 7.2929,15.0441 C4.9989,14.7301 3.2109,16.7881 2.8699,18.8741 C2.4869,21.1651 3.3579,23.1171 5.1829,24.1031 C7.3989,25.3001 10.3049,24.7201 12.5839,22.6271 C15.7539,19.7171 17.0099,12.6701 15.8129,8.9461 C15.3509,7.5061 14.4539,6.6211 13.3509,6.5171 C12.4389,6.4321 11.5379,6.9001 11.1109,7.6871 C10.7809,8.2901 10.7769,8.9501 11.0999,9.5011 C11.4319,10.0661 11.8449,10.2691 12.1329,10.3391 C12.5169,10.4321 12.8539,10.3391 13.0399,10.2221 C13.4299,9.9771 13.4919,9.5641 13.4269,9.2801 C13.3819,9.0881 13.2739,8.9461 13.1639,8.9351 C12.9339,8.9091 12.7629,8.7021 12.7899,8.4721 C12.8139,8.2411 13.0209,8.0741 13.2529,8.0981 C13.7269,8.1471 14.1169,8.5361 14.2469,9.0891 C14.3809,9.6851 14.2029,10.4831 13.4879,10.9341 C13.0579,11.2051 12.4759,11.2871 11.9339,11.1551 C11.4879,11.0461 10.8539,10.7451 10.3729,9.9261 C9.8999,9.1161 9.8999,8.1541 10.3719,7.2841 C10.9579,6.2071 12.1869,5.5641 13.4309,5.6791 C14.8839,5.8171 16.0439,6.9121 16.6129,8.6901 C17.8899,12.6701 16.6329,20.0531 13.1539,23.2461 C10.6059,25.5861 7.3199,26.2131 4.7829,24.8421 C2.9559,23.8561 1.9409,22.0641 1.9409,19.9211" id="Fill-38" fill="#936E2A"></path>
                        <path d="M6.8281,14.4211 C4.4481,14.4211 2.6451,16.5841 2.2861,18.7791 C2.2231,19.1671 2.1911,19.5511 2.1911,19.9211 C2.1911,21.9791 3.1791,23.6921 4.9011,24.6221 C7.3451,25.9421 10.5161,25.3301 12.9851,23.0621 C16.3981,19.9291 17.6311,12.6801 16.3751,8.7661 C15.8381,7.0901 14.7571,6.0561 13.4081,5.9281 C12.2521,5.8171 11.1291,6.4151 10.5921,7.4031 C10.1631,8.1941 10.1611,9.0681 10.5891,9.8001 C11.0241,10.5411 11.5931,10.8151 11.9931,10.9121 C12.4711,11.0291 12.9811,10.9571 13.3551,10.7221 C13.9621,10.3391 14.1181,9.6531 14.0031,9.1441 C13.8981,8.6981 13.5941,8.3841 13.2271,8.3471 C13.1241,8.3311 13.0481,8.4051 13.0381,8.4971 C13.0331,8.5441 13.0461,8.5861 13.0741,8.6211 C13.1021,8.6581 13.1441,8.6811 13.1911,8.6871 C13.4111,8.7091 13.5991,8.9201 13.6701,9.2231 C13.7541,9.5861 13.6731,10.1191 13.1731,10.4341 C12.9431,10.5771 12.5351,10.6931 12.0751,10.5821 C11.7391,10.5001 11.2611,10.2691 10.8841,9.6281 C10.5161,9.0001 10.5191,8.2481 10.8921,7.5671 C11.3651,6.6951 12.3651,6.1751 13.3741,6.2681 C14.5811,6.3821 15.5571,7.3301 16.0511,8.8701 C17.2701,12.6631 15.9881,19.8421 12.7531,22.8121 C10.3941,24.9781 7.3741,25.5711 5.0641,24.3221 C3.1351,23.2811 2.2231,21.2291 2.6231,18.8331 C2.9831,16.6321 4.8841,14.4751 7.3271,14.7961 C8.3261,14.9341 9.2361,15.5651 9.7041,16.4431 C10.1541,17.2861 10.1601,18.2471 9.7201,19.1501 C9.0831,20.2751 8.2301,20.4101 7.7751,20.4341 C7.1191,20.4281 6.5061,20.0791 6.2141,19.5441 C5.8441,18.8621 6.1001,18.1151 6.5461,17.7301 C6.9681,17.3671 7.4771,17.3441 7.9091,17.6671 C7.9461,17.6951 7.9911,17.7061 8.0361,17.7011 C8.0801,17.6941 8.1201,17.6711 8.1481,17.6351 C8.2051,17.5591 8.1901,17.4531 8.1141,17.3951 C7.5611,16.9791 6.8581,17.0081 6.3241,17.4701 C5.7741,17.9471 5.4561,18.8691 5.9141,19.7071 C6.2641,20.3491 6.9941,20.7681 7.7721,20.7741 L7.7901,20.7741 C8.6831,20.7741 9.4951,20.2401 10.0211,19.3091 C10.5111,18.3061 10.5081,17.2271 10.0061,16.2831 C9.4791,15.2961 8.4951,14.6131 7.3731,14.4591 C7.1881,14.4341 7.0071,14.4211 6.8281,14.4211 M7.6751,25.8101 C6.6201,25.8101 5.5941,25.5651 4.6641,25.0621 C2.7741,24.0421 1.6911,22.1681 1.6911,19.9211 C1.6911,19.5241 1.7251,19.1121 1.7931,18.6991 C2.2171,16.1081 4.4901,13.5621 7.4411,13.9631 C8.7221,14.1411 9.8451,14.9201 10.4471,16.0491 C11.0271,17.1371 11.0331,18.3771 10.4641,19.5411 C9.8391,20.6481 8.8691,21.2741 7.7901,21.2741 L7.7681,21.2741 C6.8111,21.2661 5.9111,20.7451 5.4751,19.9471 C4.8911,18.8771 5.2951,17.7001 5.9961,17.0921 C6.7171,16.4681 7.6651,16.4331 8.4161,16.9961 C8.7111,17.2221 8.7691,17.6431 8.5471,17.9361 C8.4391,18.0791 8.2821,18.1711 8.1051,18.1961 C7.9241,18.2191 7.7501,18.1751 7.6081,18.0671 C7.3661,17.8841 7.1181,17.8981 6.8721,18.1081 C6.5791,18.3621 6.4091,18.8561 6.6541,19.3061 C6.8591,19.6831 7.3011,19.9301 7.7791,19.9341 L7.7891,19.9341 C8.1351,19.9341 8.7791,19.7991 9.2771,18.9171 C9.6391,18.1771 9.6361,17.3771 9.2631,16.6791 C8.8691,15.9401 8.1011,15.4081 7.2591,15.2921 C5.1171,14.9861 3.4381,16.9431 3.1171,18.9141 C2.7531,21.0901 3.5701,22.9471 5.3021,23.8831 C7.4221,25.0271 10.2141,24.4641 12.4151,22.4421 C15.5231,19.5901 16.7501,12.6801 15.5751,9.0231 C15.1451,7.6831 14.3261,6.8601 13.3281,6.7661 C12.5111,6.6891 11.7091,7.1081 11.3311,7.8061 C11.0441,8.3301 11.0381,8.9021 11.3151,9.3751 C11.6031,9.8641 11.9511,10.0371 12.1921,10.0961 C12.5001,10.1691 12.7691,10.0961 12.9071,10.0101 C13.2651,9.7841 13.2001,9.4091 13.1831,9.3361 C13.1591,9.2311 13.1151,9.1811 13.1041,9.1731 C12.9561,9.1631 12.7951,9.0741 12.6821,8.9331 C12.5711,8.7931 12.5211,8.6191 12.5411,8.4421 C12.5791,8.0801 12.9181,7.8181 13.2771,7.8491 C13.8601,7.9091 14.3361,8.3731 14.4901,9.0321 C14.6441,9.7151 14.4351,10.6321 13.6211,11.1451 C13.1351,11.4521 12.4811,11.5451 11.8741,11.3991 C11.3801,11.2771 10.6821,10.9451 10.1571,10.0531 C9.6401,9.1661 9.6381,8.1131 10.1521,7.1651 C10.7841,6.0021 12.1131,5.3041 13.4541,5.4301 C15.0131,5.5771 16.2501,6.7371 16.8511,8.6131 C18.1511,12.6651 16.8671,20.1781 13.3231,23.4311 C11.6241,24.9901 9.6021,25.8101 7.6751,25.8101" id="Fill-40" fill="#936E2A"></path>
                        <path d="M12.8335,14.6145 C12.8335,14.6085 12.8335,14.6025 12.8345,14.5955 C12.8395,14.4725 12.8995,14.3585 12.9965,14.2825 C14.4795,13.1345 21.6835,7.0895 17.7735,0.8955 C17.6495,0.6985 17.7085,0.4375 17.9035,0.3155 C18.1015,0.1915 18.3615,0.2505 18.4845,0.4475 C22.5015,6.8095 16.0455,12.8775 13.8935,14.6425 C16.1795,16.8515 20.6525,21.9015 20.6525,27.5905 C20.6525,27.8225 20.4645,28.0115 20.2315,28.0115 C19.9995,28.0115 19.8125,27.8225 19.8125,27.5905 C19.8125,21.9205 15.0245,16.8435 12.9675,14.9225 C12.8815,14.8435 12.8335,14.7325 12.8335,14.6145" id="Fill-42" fill="#936E2A"></path>
                        <path d="M18.1289,0.5002 C18.0969,0.5002 18.0649,0.5102 18.0369,0.5272 C17.9989,0.5512 17.9729,0.5882 17.9629,0.6312 C17.9529,0.6772 17.9609,0.7232 17.9849,0.7622 C22.0109,7.1392 14.6639,13.3082 13.1499,14.4792 C13.1099,14.5112 13.0869,14.5572 13.0849,14.6042 L12.8339,14.6142 L13.0839,14.6142 C13.0839,14.6622 13.1029,14.7062 13.1369,14.7382 C15.2199,16.6842 20.0619,21.8272 20.0619,27.5902 C20.0619,27.7792 20.4019,27.7792 20.4019,27.5902 C20.4019,21.8952 15.7289,16.7642 13.7189,14.8222 L13.5179,14.6272 L13.7339,14.4492 C15.7889,12.7642 22.1889,6.7822 18.2739,0.5812 C18.2489,0.5412 18.2119,0.5152 18.1679,0.5052 C18.1549,0.5022 18.1419,0.5002 18.1289,0.5002 M20.2319,28.2622 C19.8619,28.2622 19.5619,27.9602 19.5619,27.5902 C19.5619,22.0222 14.8309,17.0042 12.7969,15.1042 C12.6619,14.9792 12.5839,14.8012 12.5839,14.6142 L12.5899,14.5432 C12.5919,14.3912 12.6859,14.2082 12.8419,14.0862 C14.2969,12.9592 21.3569,7.0402 17.5629,1.0292 C17.4659,0.8762 17.4349,0.6952 17.4759,0.5202 C17.5159,0.3462 17.6209,0.1972 17.7719,0.1042 C17.9239,0.0072 18.1029,-0.0228 18.2799,0.0182 C18.4539,0.0582 18.6029,0.1632 18.6969,0.3152 C22.6999,6.6562 16.5939,12.6922 14.2659,14.6572 C16.8369,17.1862 20.9019,22.0612 20.9019,27.5902 C20.9019,27.9602 20.6019,28.2622 20.2319,28.2622" id="Fill-44" fill="#936E2A"></path>
                        <path d="M15.5898,27.3821 L15.5898,27.3741 C15.7018,21.7731 20.0998,16.8141 22.3438,14.6431 C20.1938,12.8771 13.7408,6.8071 17.7538,0.4471 C17.8778,0.2501 18.1388,0.1921 18.3338,0.3161 C18.5308,0.4381 18.5898,0.6981 18.4648,0.8961 C14.5648,7.0831 21.7598,13.1331 23.2418,14.2841 C23.3398,14.3591 23.3978,14.4731 23.4048,14.5961 C23.4218,14.7111 23.3628,14.8381 23.2708,14.9221 C21.2518,16.8091 16.5428,21.8001 16.4298,27.3911 C16.4248,27.6231 16.2328,27.8081 16.0018,27.8031 C15.7728,27.7981 15.5898,27.6111 15.5898,27.3821" id="Fill-46" fill="#936E2A"></path>
                        <path d="M18.1099,0.5002 C18.0979,0.5002 18.0849,0.5022 18.0729,0.5052 C18.0279,0.5152 17.9899,0.5422 17.9649,0.5802 C14.0519,6.7812 20.4489,12.7642 22.5029,14.4492 L22.7199,14.6272 L22.5179,14.8222 C20.5479,16.7292 15.9519,21.7672 15.8399,27.3792 L15.5899,27.3822 L15.8399,27.3822 C15.8399,27.4762 15.9139,27.5512 16.0069,27.5532 C16.0549,27.5562 16.0949,27.5372 16.1279,27.5062 C16.1609,27.4742 16.1789,27.4312 16.1799,27.3862 C16.2949,21.7012 21.0579,16.6472 23.0999,14.7392 C23.1429,14.7002 23.1599,14.6522 23.1569,14.6322 C23.1519,14.5592 23.1289,14.5132 23.0899,14.4832 C21.5769,13.3082 14.2409,7.1272 18.2539,0.7622 C18.2779,0.7232 18.2859,0.6772 18.2759,0.6322 C18.2659,0.5882 18.2399,0.5522 18.2019,0.5282 C18.1729,0.5102 18.1419,0.5002 18.1099,0.5002 M16.0109,28.0532 L15.9969,28.0532 C15.6339,28.0452 15.3399,27.7442 15.3399,27.3822 L15.3399,27.3742 C15.4489,21.9262 19.4499,17.1402 21.9709,14.6572 C19.6449,12.6922 13.5409,6.6542 17.5429,0.3132 C17.6379,0.1622 17.7879,0.0572 17.9629,0.0172 C18.1369,-0.0208 18.3169,0.0092 18.4679,0.1042 C18.6169,0.1972 18.7229,0.3452 18.7629,0.5202 C18.8039,0.6952 18.7729,0.8762 18.6759,1.0292 C14.8939,7.0292 21.9429,12.9592 23.3949,14.0872 C23.5479,14.2032 23.6439,14.3842 23.6539,14.5822 C23.6799,14.7522 23.5989,14.9612 23.4399,15.1062 C21.4459,16.9702 16.7909,21.9012 16.6799,27.3962 C16.6759,27.5752 16.6029,27.7422 16.4739,27.8662 C16.3479,27.9862 16.1849,28.0532 16.0109,28.0532" id="Fill-48" fill="#936E2A"></path>
                        <path d="M19.9326,27.4797 C19.9326,27.2487 20.1216,27.0597 20.3536,27.0597 L32.5956,27.0597 C32.8276,27.0597 33.0156,27.2487 33.0156,27.4797 C33.0156,27.7117 32.8276,27.9017 32.5956,27.9017 L20.3536,27.9017 C20.1216,27.9017 19.9326,27.7117 19.9326,27.4797" id="Fill-50" fill="#936E2A"></path>
                        <path d="M20.354,27.3098 C20.259,27.3098 20.183,27.3858 20.183,27.4798 C20.183,27.5748 20.259,27.6518 20.354,27.6518 L32.595,27.6518 C32.689,27.6518 32.765,27.5748 32.765,27.4798 C32.765,27.3858 32.689,27.3098 32.595,27.3098 L20.354,27.3098 Z M32.595,28.1518 L20.354,28.1518 C19.984,28.1518 19.683,27.8498 19.683,27.4798 C19.683,27.1108 19.984,26.8098 20.354,26.8098 L32.595,26.8098 C32.965,26.8098 33.265,27.1108 33.265,27.4798 C33.265,27.8498 32.965,28.1518 32.595,28.1518 L32.595,28.1518 Z" id="Fill-52" fill="#936E2A"></path>
                        <path d="M35.1753,27.4797 C35.1753,26.8147 34.6823,26.2737 34.0773,26.2737 C33.4723,26.2737 32.9813,26.8147 32.9813,27.4797 C32.9813,28.1467 33.4723,28.6887 34.0773,28.6887 C34.6823,28.6887 35.1753,28.1467 35.1753,27.4797 M32.1393,27.4797 C32.1393,26.3517 33.0083,25.4307 34.0773,25.4307 C35.1463,25.4307 36.0163,26.3517 36.0163,27.4797 C36.0163,28.6117 35.1463,29.5317 34.0773,29.5317 C33.0083,29.5317 32.1393,28.6117 32.1393,27.4797" id="Fill-54" fill="#936E2A"></path>
                        <path d="M34.0771,26.5237 C33.6101,26.5237 33.2311,26.9527 33.2311,27.4797 C33.2311,28.0077 33.6101,28.4387 34.0771,28.4387 C34.5451,28.4387 34.9251,28.0077 34.9251,27.4797 C34.9251,26.9527 34.5451,26.5237 34.0771,26.5237 M34.0771,28.9387 C33.3351,28.9387 32.7311,28.2847 32.7311,27.4797 C32.7311,26.6767 33.3351,26.0237 34.0771,26.0237 C34.8201,26.0237 35.4251,26.6767 35.4251,27.4797 C35.4251,28.2847 34.8201,28.9387 34.0771,28.9387 M34.0771,25.6807 C33.1461,25.6807 32.3901,26.4877 32.3901,27.4797 C32.3901,28.4727 33.1461,29.2817 34.0771,29.2817 C35.0091,29.2817 35.7661,28.4727 35.7661,27.4797 C35.7661,26.4877 35.0091,25.6807 34.0771,25.6807 M34.0771,29.7817 C32.8711,29.7817 31.8891,28.7497 31.8891,27.4797 C31.8891,26.2117 32.8711,25.1807 34.0771,25.1807 C35.2841,25.1807 36.2661,26.2117 36.2661,27.4797 C36.2661,28.7497 35.2841,29.7817 34.0771,29.7817" id="Fill-56" fill="#936E2A"></path>
                        <path d="M3.2539,27.4797 C3.2539,27.2487 3.4419,27.0597 3.6739,27.0597 L15.9159,27.0597 C16.1489,27.0597 16.3369,27.2487 16.3369,27.4797 C16.3369,27.7117 16.1489,27.9017 15.9159,27.9017 L3.6739,27.9017 C3.4419,27.9017 3.2539,27.7117 3.2539,27.4797" id="Fill-58" fill="#936E2A"></path>
                        <path d="M3.6743,27.3098 C3.5803,27.3098 3.5043,27.3858 3.5043,27.4798 C3.5043,27.5748 3.5803,27.6518 3.6743,27.6518 L15.9163,27.6518 C16.0093,27.6518 16.0863,27.5748 16.0863,27.4798 C16.0863,27.3858 16.0093,27.3098 15.9163,27.3098 L3.6743,27.3098 Z M15.9163,28.1518 L3.6743,28.1518 C3.3043,28.1518 3.0043,27.8498 3.0043,27.4798 C3.0043,27.1108 3.3043,26.8098 3.6743,26.8098 L15.9163,26.8098 C16.2853,26.8098 16.5863,27.1108 16.5863,27.4798 C16.5863,27.8498 16.2853,28.1518 15.9163,28.1518 L15.9163,28.1518 Z" id="Fill-60" fill="#936E2A"></path>
                        <path d="M3.2856,27.4797 C3.2856,26.8147 2.7926,26.2737 2.1876,26.2737 C1.5826,26.2737 1.0906,26.8147 1.0906,27.4797 C1.0906,28.1467 1.5826,28.6887 2.1876,28.6887 C2.7926,28.6887 3.2856,28.1467 3.2856,27.4797 M0.2496,27.4797 C0.2496,26.3517 1.1186,25.4307 2.1876,25.4307 C3.2566,25.4307 4.1256,26.3517 4.1256,27.4797 C4.1256,28.6117 3.2566,29.5317 2.1876,29.5317 C1.1186,29.5317 0.2496,28.6117 0.2496,27.4797" id="Fill-62" fill="#936E2A"></path>
                        <g id="Group-66" transform="translate(0.000000, 24.960200)">
                            <mask id="mask-4" fill="white">
                                <use xlink:href="#path-3"></use>
                            </mask>
                            <g id="Clip-65"></g>
                            <path d="M2.1875,1.5635 C1.7205,1.5635 1.3405,1.9925 1.3405,2.5195 C1.3405,3.0475 1.7205,3.4785 2.1875,3.4785 C2.6555,3.4785 3.0355,3.0475 3.0355,2.5195 C3.0355,1.9925 2.6555,1.5635 2.1875,1.5635 M2.1875,3.9785 C1.4445,3.9785 0.8405,3.3245 0.8405,2.5195 C0.8405,1.7165 1.4445,1.0635 2.1875,1.0635 C2.9305,1.0635 3.5355,1.7165 3.5355,2.5195 C3.5355,3.3245 2.9305,3.9785 2.1875,3.9785 M2.1875,0.7205 C1.2565,0.7205 0.5005,1.5275 0.5005,2.5195 C0.5005,3.5125 1.2565,4.3215 2.1875,4.3215 C3.1185,4.3215 3.8755,3.5125 3.8755,2.5195 C3.8755,1.5275 3.1185,0.7205 2.1875,0.7205 M2.1875,4.8215 C0.9815,4.8215 -0.0005,3.7895 -0.0005,2.5195 C-0.0005,1.2515 0.9815,0.2205 2.1875,0.2205 C3.3945,0.2205 4.3755,1.2515 4.3755,2.5195 C4.3755,3.7895 3.3945,4.8215 2.1875,4.8215" id="Fill-64" fill="#936E2A" mask="url(#mask-4)"></path>
                        </g>
                    </g>
                </g>
            </g>
        </g>
    </svg>